<mxfile host="app.diagrams.net" modified="2023-11-21T12:59:50.213Z" agent="Mozilla/5.0 (Windows NT 10.0; Win64; x64) AppleWebKit/537.36 (KHTML, like Gecko) Chrome/119.0.0.0 Safari/537.36" etag="JbWJ9eWvsbs5BI-cEDIz" version="22.1.3" type="device">
  <diagram name="Side-1" id="6qllMTfF5c8WHE0eEEqt">
    <mxGraphModel dx="2901" dy="1150" grid="1" gridSize="10" guides="1" tooltips="1" connect="1" arrows="1" fold="1" page="1" pageScale="1" pageWidth="827" pageHeight="1169" math="0" shadow="0">
      <root>
        <mxCell id="0" />
        <mxCell id="1" parent="0" />
        <mxCell id="1Y0CMuLdsKp0yaEoSMjd-39" value="" style="rounded=0;whiteSpace=wrap;html=1;" vertex="1" parent="1">
          <mxGeometry x="2200" y="110" width="1510" height="950" as="geometry" />
        </mxCell>
        <mxCell id="1Y0CMuLdsKp0yaEoSMjd-2" value="" style="rounded=0;whiteSpace=wrap;html=1;" vertex="1" parent="1">
          <mxGeometry x="-730" y="110" width="640" height="960" as="geometry" />
        </mxCell>
        <mxCell id="1Y0CMuLdsKp0yaEoSMjd-1" value="User&lt;br&gt;" style="shape=umlActor;verticalLabelPosition=bottom;verticalAlign=top;html=1;outlineConnect=0;" vertex="1" parent="1">
          <mxGeometry x="-790" y="525" width="30" height="60" as="geometry" />
        </mxCell>
        <mxCell id="1Y0CMuLdsKp0yaEoSMjd-3" value="Website" style="shape=hexagon;perimeter=hexagonPerimeter2;whiteSpace=wrap;html=1;fixedSize=1;" vertex="1" parent="1">
          <mxGeometry x="-50" y="525" width="100" height="60" as="geometry" />
        </mxCell>
        <mxCell id="1Y0CMuLdsKp0yaEoSMjd-4" value="Frontpage" style="ellipse;whiteSpace=wrap;html=1;" vertex="1" parent="1">
          <mxGeometry x="-710" y="470" width="120" height="80" as="geometry" />
        </mxCell>
        <mxCell id="1Y0CMuLdsKp0yaEoSMjd-5" value="Movie page" style="ellipse;whiteSpace=wrap;html=1;" vertex="1" parent="1">
          <mxGeometry x="-600" y="380" width="120" height="80" as="geometry" />
        </mxCell>
        <mxCell id="1Y0CMuLdsKp0yaEoSMjd-6" value="Select movie" style="ellipse;whiteSpace=wrap;html=1;" vertex="1" parent="1">
          <mxGeometry x="-460" y="320" width="120" height="80" as="geometry" />
        </mxCell>
        <mxCell id="1Y0CMuLdsKp0yaEoSMjd-7" value="Buy ticket" style="ellipse;whiteSpace=wrap;html=1;" vertex="1" parent="1">
          <mxGeometry x="-300" y="330" width="120" height="80" as="geometry" />
        </mxCell>
        <mxCell id="1Y0CMuLdsKp0yaEoSMjd-9" value="payment confirmation" style="ellipse;whiteSpace=wrap;html=1;" vertex="1" parent="1">
          <mxGeometry x="-440" y="690" width="120" height="80" as="geometry" />
        </mxCell>
        <mxCell id="1Y0CMuLdsKp0yaEoSMjd-10" value="" style="endArrow=none;html=1;rounded=0;exitX=0;exitY=0.75;exitDx=0;exitDy=0;entryX=1;entryY=0.5;entryDx=0;entryDy=0;" edge="1" parent="1" source="1Y0CMuLdsKp0yaEoSMjd-3" target="1Y0CMuLdsKp0yaEoSMjd-9">
          <mxGeometry width="50" height="50" relative="1" as="geometry">
            <mxPoint x="-260" y="710" as="sourcePoint" />
            <mxPoint x="-210" y="660" as="targetPoint" />
          </mxGeometry>
        </mxCell>
        <mxCell id="1Y0CMuLdsKp0yaEoSMjd-11" value="" style="endArrow=none;html=1;rounded=0;exitX=0;exitY=0.5;exitDx=0;exitDy=0;" edge="1" parent="1" source="1Y0CMuLdsKp0yaEoSMjd-4" target="1Y0CMuLdsKp0yaEoSMjd-1">
          <mxGeometry width="50" height="50" relative="1" as="geometry">
            <mxPoint x="-400" y="507.5" as="sourcePoint" />
            <mxPoint x="-670" y="672.5" as="targetPoint" />
          </mxGeometry>
        </mxCell>
        <mxCell id="1Y0CMuLdsKp0yaEoSMjd-12" value="" style="endArrow=none;html=1;rounded=0;exitX=0;exitY=1;exitDx=0;exitDy=0;entryX=1;entryY=0;entryDx=0;entryDy=0;" edge="1" parent="1" source="1Y0CMuLdsKp0yaEoSMjd-5" target="1Y0CMuLdsKp0yaEoSMjd-4">
          <mxGeometry width="50" height="50" relative="1" as="geometry">
            <mxPoint x="-690" y="565" as="sourcePoint" />
            <mxPoint x="-750" y="565" as="targetPoint" />
          </mxGeometry>
        </mxCell>
        <mxCell id="1Y0CMuLdsKp0yaEoSMjd-13" value="" style="endArrow=none;html=1;rounded=0;exitX=0;exitY=0.5;exitDx=0;exitDy=0;entryX=1;entryY=0;entryDx=0;entryDy=0;" edge="1" parent="1" source="1Y0CMuLdsKp0yaEoSMjd-6" target="1Y0CMuLdsKp0yaEoSMjd-5">
          <mxGeometry width="50" height="50" relative="1" as="geometry">
            <mxPoint x="-360" y="500" as="sourcePoint" />
            <mxPoint x="-420" y="500" as="targetPoint" />
          </mxGeometry>
        </mxCell>
        <mxCell id="1Y0CMuLdsKp0yaEoSMjd-14" value="" style="endArrow=none;html=1;rounded=0;exitX=0;exitY=0.5;exitDx=0;exitDy=0;entryX=1;entryY=0.5;entryDx=0;entryDy=0;" edge="1" parent="1" source="1Y0CMuLdsKp0yaEoSMjd-7" target="1Y0CMuLdsKp0yaEoSMjd-6">
          <mxGeometry width="50" height="50" relative="1" as="geometry">
            <mxPoint x="-410" y="400" as="sourcePoint" />
            <mxPoint x="-468" y="442" as="targetPoint" />
          </mxGeometry>
        </mxCell>
        <mxCell id="1Y0CMuLdsKp0yaEoSMjd-16" value="" style="endArrow=none;html=1;rounded=0;exitX=0;exitY=0.25;exitDx=0;exitDy=0;entryX=1;entryY=1;entryDx=0;entryDy=0;" edge="1" parent="1" source="1Y0CMuLdsKp0yaEoSMjd-3" target="1Y0CMuLdsKp0yaEoSMjd-7">
          <mxGeometry width="50" height="50" relative="1" as="geometry">
            <mxPoint x="-130" y="515" as="sourcePoint" />
            <mxPoint x="-198" y="503" as="targetPoint" />
          </mxGeometry>
        </mxCell>
        <mxCell id="1Y0CMuLdsKp0yaEoSMjd-17" value="" style="endArrow=none;html=1;rounded=0;entryX=0;entryY=0.5;entryDx=0;entryDy=0;" edge="1" parent="1" source="1Y0CMuLdsKp0yaEoSMjd-1" target="1Y0CMuLdsKp0yaEoSMjd-9">
          <mxGeometry width="50" height="50" relative="1" as="geometry">
            <mxPoint x="-32" y="578" as="sourcePoint" />
            <mxPoint x="-310" y="730" as="targetPoint" />
          </mxGeometry>
        </mxCell>
        <mxCell id="1Y0CMuLdsKp0yaEoSMjd-18" value="Admin" style="shape=umlActor;verticalLabelPosition=bottom;verticalAlign=top;html=1;outlineConnect=0;" vertex="1" parent="1">
          <mxGeometry x="220" y="510" width="30" height="60" as="geometry" />
        </mxCell>
        <mxCell id="1Y0CMuLdsKp0yaEoSMjd-19" value="" style="rounded=0;whiteSpace=wrap;html=1;" vertex="1" parent="1">
          <mxGeometry x="310" y="110" width="620" height="950" as="geometry" />
        </mxCell>
        <mxCell id="1Y0CMuLdsKp0yaEoSMjd-20" value="Database" style="shape=hexagon;perimeter=hexagonPerimeter2;whiteSpace=wrap;html=1;fixedSize=1;" vertex="1" parent="1">
          <mxGeometry x="980" y="510" width="100" height="60" as="geometry" />
        </mxCell>
        <mxCell id="1Y0CMuLdsKp0yaEoSMjd-21" value="Fill movie data" style="ellipse;whiteSpace=wrap;html=1;" vertex="1" parent="1">
          <mxGeometry x="560" y="340" width="120" height="80" as="geometry" />
        </mxCell>
        <mxCell id="1Y0CMuLdsKp0yaEoSMjd-22" value="Create movie" style="ellipse;whiteSpace=wrap;html=1;" vertex="1" parent="1">
          <mxGeometry x="740" y="380" width="120" height="80" as="geometry" />
        </mxCell>
        <mxCell id="1Y0CMuLdsKp0yaEoSMjd-24" value="" style="endArrow=none;html=1;rounded=0;entryX=0;entryY=0.25;entryDx=0;entryDy=0;exitX=1;exitY=1;exitDx=0;exitDy=0;" edge="1" parent="1" source="1Y0CMuLdsKp0yaEoSMjd-22" target="1Y0CMuLdsKp0yaEoSMjd-20">
          <mxGeometry width="50" height="50" relative="1" as="geometry">
            <mxPoint x="1100" y="279.10633484162895" as="sourcePoint" />
            <mxPoint x="1158.3333333333335" y="270" as="targetPoint" />
          </mxGeometry>
        </mxCell>
        <mxCell id="1Y0CMuLdsKp0yaEoSMjd-25" value="admin panel" style="ellipse;whiteSpace=wrap;html=1;" vertex="1" parent="1">
          <mxGeometry x="370" y="420" width="120" height="80" as="geometry" />
        </mxCell>
        <mxCell id="1Y0CMuLdsKp0yaEoSMjd-26" value="" style="endArrow=none;html=1;rounded=0;entryX=0;entryY=0.5;entryDx=0;entryDy=0;exitX=1;exitY=1;exitDx=0;exitDy=0;" edge="1" parent="1" source="1Y0CMuLdsKp0yaEoSMjd-21" target="1Y0CMuLdsKp0yaEoSMjd-22">
          <mxGeometry width="50" height="50" relative="1" as="geometry">
            <mxPoint x="570" y="500" as="sourcePoint" />
            <mxPoint x="716" y="580" as="targetPoint" />
          </mxGeometry>
        </mxCell>
        <mxCell id="1Y0CMuLdsKp0yaEoSMjd-27" value="" style="endArrow=none;html=1;rounded=0;entryX=0;entryY=1;entryDx=0;entryDy=0;exitX=1;exitY=0;exitDx=0;exitDy=0;" edge="1" parent="1" source="1Y0CMuLdsKp0yaEoSMjd-25" target="1Y0CMuLdsKp0yaEoSMjd-21">
          <mxGeometry width="50" height="50" relative="1" as="geometry">
            <mxPoint x="672" y="418" as="sourcePoint" />
            <mxPoint x="750" y="430" as="targetPoint" />
          </mxGeometry>
        </mxCell>
        <mxCell id="1Y0CMuLdsKp0yaEoSMjd-28" value="" style="endArrow=none;html=1;rounded=0;exitX=0;exitY=1;exitDx=0;exitDy=0;" edge="1" parent="1" source="1Y0CMuLdsKp0yaEoSMjd-25" target="1Y0CMuLdsKp0yaEoSMjd-18">
          <mxGeometry width="50" height="50" relative="1" as="geometry">
            <mxPoint x="682" y="428" as="sourcePoint" />
            <mxPoint x="760" y="440" as="targetPoint" />
          </mxGeometry>
        </mxCell>
        <mxCell id="1Y0CMuLdsKp0yaEoSMjd-29" value="??" style="shape=umlActor;verticalLabelPosition=bottom;verticalAlign=top;html=1;outlineConnect=0;" vertex="1" parent="1">
          <mxGeometry x="1180" y="510" width="30" height="60" as="geometry" />
        </mxCell>
        <mxCell id="1Y0CMuLdsKp0yaEoSMjd-30" value="" style="rounded=0;whiteSpace=wrap;html=1;" vertex="1" parent="1">
          <mxGeometry x="1270" y="110" width="620" height="950" as="geometry" />
        </mxCell>
        <mxCell id="1Y0CMuLdsKp0yaEoSMjd-31" value="??" style="shape=hexagon;perimeter=hexagonPerimeter2;whiteSpace=wrap;html=1;fixedSize=1;" vertex="1" parent="1">
          <mxGeometry x="1940" y="510" width="100" height="60" as="geometry" />
        </mxCell>
        <mxCell id="1Y0CMuLdsKp0yaEoSMjd-32" value="??" style="ellipse;whiteSpace=wrap;html=1;" vertex="1" parent="1">
          <mxGeometry x="1520" y="340" width="120" height="80" as="geometry" />
        </mxCell>
        <mxCell id="1Y0CMuLdsKp0yaEoSMjd-33" value="??" style="ellipse;whiteSpace=wrap;html=1;" vertex="1" parent="1">
          <mxGeometry x="1700" y="380" width="120" height="80" as="geometry" />
        </mxCell>
        <mxCell id="1Y0CMuLdsKp0yaEoSMjd-34" value="" style="endArrow=none;html=1;rounded=0;entryX=0;entryY=0.25;entryDx=0;entryDy=0;exitX=1;exitY=1;exitDx=0;exitDy=0;" edge="1" parent="1" source="1Y0CMuLdsKp0yaEoSMjd-33" target="1Y0CMuLdsKp0yaEoSMjd-31">
          <mxGeometry width="50" height="50" relative="1" as="geometry">
            <mxPoint x="2060" y="279.10633484162895" as="sourcePoint" />
            <mxPoint x="2118.3333333333335" y="270" as="targetPoint" />
          </mxGeometry>
        </mxCell>
        <mxCell id="1Y0CMuLdsKp0yaEoSMjd-35" value="??" style="ellipse;whiteSpace=wrap;html=1;" vertex="1" parent="1">
          <mxGeometry x="1330" y="420" width="120" height="80" as="geometry" />
        </mxCell>
        <mxCell id="1Y0CMuLdsKp0yaEoSMjd-36" value="" style="endArrow=none;html=1;rounded=0;entryX=0;entryY=0.5;entryDx=0;entryDy=0;exitX=1;exitY=1;exitDx=0;exitDy=0;" edge="1" parent="1" source="1Y0CMuLdsKp0yaEoSMjd-32" target="1Y0CMuLdsKp0yaEoSMjd-33">
          <mxGeometry width="50" height="50" relative="1" as="geometry">
            <mxPoint x="1530" y="500" as="sourcePoint" />
            <mxPoint x="1676" y="580" as="targetPoint" />
          </mxGeometry>
        </mxCell>
        <mxCell id="1Y0CMuLdsKp0yaEoSMjd-37" value="" style="endArrow=none;html=1;rounded=0;entryX=0;entryY=1;entryDx=0;entryDy=0;exitX=1;exitY=0;exitDx=0;exitDy=0;" edge="1" parent="1" source="1Y0CMuLdsKp0yaEoSMjd-35" target="1Y0CMuLdsKp0yaEoSMjd-32">
          <mxGeometry width="50" height="50" relative="1" as="geometry">
            <mxPoint x="1632" y="418" as="sourcePoint" />
            <mxPoint x="1710" y="430" as="targetPoint" />
          </mxGeometry>
        </mxCell>
        <mxCell id="1Y0CMuLdsKp0yaEoSMjd-38" value="" style="endArrow=none;html=1;rounded=0;exitX=0;exitY=1;exitDx=0;exitDy=0;" edge="1" parent="1" source="1Y0CMuLdsKp0yaEoSMjd-35" target="1Y0CMuLdsKp0yaEoSMjd-29">
          <mxGeometry width="50" height="50" relative="1" as="geometry">
            <mxPoint x="1642" y="428" as="sourcePoint" />
            <mxPoint x="1720" y="440" as="targetPoint" />
          </mxGeometry>
        </mxCell>
        <mxCell id="1Y0CMuLdsKp0yaEoSMjd-40" value="&lt;font style=&quot;font-size: 22px;&quot;&gt;Home&lt;/font&gt;" style="text;html=1;strokeColor=none;fillColor=none;align=center;verticalAlign=middle;whiteSpace=wrap;rounded=0;" vertex="1" parent="1">
          <mxGeometry x="2210" y="120" width="80" height="50" as="geometry" />
        </mxCell>
        <mxCell id="1Y0CMuLdsKp0yaEoSMjd-41" value="&lt;font style=&quot;font-size: 22px;&quot;&gt;Movies&lt;/font&gt;" style="text;html=1;strokeColor=none;fillColor=none;align=center;verticalAlign=middle;whiteSpace=wrap;rounded=0;" vertex="1" parent="1">
          <mxGeometry x="2340" y="120" width="80" height="50" as="geometry" />
        </mxCell>
        <mxCell id="1Y0CMuLdsKp0yaEoSMjd-42" value="&lt;span style=&quot;font-size: 22px;&quot;&gt;Store&lt;/span&gt;" style="text;html=1;strokeColor=none;fillColor=none;align=center;verticalAlign=middle;whiteSpace=wrap;rounded=0;" vertex="1" parent="1">
          <mxGeometry x="2470" y="120" width="80" height="50" as="geometry" />
        </mxCell>
        <mxCell id="1Y0CMuLdsKp0yaEoSMjd-43" value="&lt;font style=&quot;font-size: 22px;&quot;&gt;Login&lt;/font&gt;" style="text;html=1;strokeColor=none;fillColor=none;align=center;verticalAlign=middle;whiteSpace=wrap;rounded=0;" vertex="1" parent="1">
          <mxGeometry x="2600" y="120" width="80" height="50" as="geometry" />
        </mxCell>
        <mxCell id="1Y0CMuLdsKp0yaEoSMjd-44" value="&lt;font style=&quot;font-size: 18px;&quot;&gt;Film1&lt;/font&gt;" style="rounded=0;whiteSpace=wrap;html=1;" vertex="1" parent="1">
          <mxGeometry x="2380" y="310" width="180" height="220" as="geometry" />
        </mxCell>
        <mxCell id="1Y0CMuLdsKp0yaEoSMjd-45" value="&lt;font style=&quot;font-size: 18px;&quot;&gt;Film2&lt;/font&gt;" style="rounded=0;whiteSpace=wrap;html=1;" vertex="1" parent="1">
          <mxGeometry x="2715.5" y="310" width="180" height="220" as="geometry" />
        </mxCell>
        <mxCell id="1Y0CMuLdsKp0yaEoSMjd-52" value="&lt;font style=&quot;font-size: 18px;&quot;&gt;Film3&lt;/font&gt;" style="rounded=0;whiteSpace=wrap;html=1;" vertex="1" parent="1">
          <mxGeometry x="3060" y="310" width="180" height="220" as="geometry" />
        </mxCell>
        <mxCell id="1Y0CMuLdsKp0yaEoSMjd-53" value="&lt;font style=&quot;font-size: 18px;&quot;&gt;Film4&lt;/font&gt;" style="rounded=0;whiteSpace=wrap;html=1;" vertex="1" parent="1">
          <mxGeometry x="3410" y="310" width="180" height="220" as="geometry" />
        </mxCell>
        <mxCell id="1Y0CMuLdsKp0yaEoSMjd-54" value="&lt;font style=&quot;font-size: 18px;&quot;&gt;Film5&lt;/font&gt;" style="rounded=0;whiteSpace=wrap;html=1;" vertex="1" parent="1">
          <mxGeometry x="2380" y="670" width="180" height="220" as="geometry" />
        </mxCell>
        <mxCell id="1Y0CMuLdsKp0yaEoSMjd-55" value="&lt;font style=&quot;font-size: 18px;&quot;&gt;Film6&lt;/font&gt;" style="rounded=0;whiteSpace=wrap;html=1;" vertex="1" parent="1">
          <mxGeometry x="2715.5" y="670" width="180" height="220" as="geometry" />
        </mxCell>
        <mxCell id="1Y0CMuLdsKp0yaEoSMjd-56" value="&lt;font style=&quot;font-size: 18px;&quot;&gt;Film7&lt;/font&gt;" style="rounded=0;whiteSpace=wrap;html=1;" vertex="1" parent="1">
          <mxGeometry x="3060" y="670" width="180" height="220" as="geometry" />
        </mxCell>
        <mxCell id="1Y0CMuLdsKp0yaEoSMjd-57" value="&lt;font style=&quot;font-size: 18px;&quot;&gt;Film8&lt;/font&gt;" style="rounded=0;whiteSpace=wrap;html=1;" vertex="1" parent="1">
          <mxGeometry x="3410" y="670" width="180" height="220" as="geometry" />
        </mxCell>
      </root>
    </mxGraphModel>
  </diagram>
</mxfile>
